<svg width="16" height="20" viewBox="0 0 16 20" fill="none" xmlns="http://www.w3.org/2000/svg">
<path d="M8.00055 9.9375C8.53352 9.9375 8.98958 9.74773 9.36875 9.3682C9.74792 8.98866 9.9375 8.53242 9.9375 7.99945C9.9375 7.46648 9.74773 7.01041 9.3682 6.63125C8.98867 6.25208 8.53242 6.0625 7.99945 6.0625C7.46648 6.0625 7.01042 6.25226 6.63125 6.6318C6.25208 7.01133 6.0625 7.46758 6.0625 8.00055C6.0625 8.53351 6.25227 8.98958 6.6318 9.36875C7.01133 9.74791 7.46758 9.9375 8.00055 9.9375ZM8 17.275C9.99167 15.4167 11.4688 13.7354 12.4313 12.2312C13.3938 10.7271 13.875 9.39583 13.875 8.2375C13.875 6.44583 13.3077 4.98125 12.1732 3.84375C11.0386 2.70625 9.64694 2.1375 7.99818 2.1375C6.34939 2.1375 4.95833 2.70625 3.825 3.84375C2.69167 4.98125 2.125 6.44583 2.125 8.2375C2.125 9.39583 2.60625 10.7271 3.56875 12.2312C4.53125 13.7354 6.00833 15.4167 8 17.275ZM8 19.75C5.39167 17.4917 3.44792 15.4146 2.16875 13.5187C0.889583 11.6229 0.25 9.86406 0.25 8.24217C0.25 5.80934 1.03125 3.87119 2.59375 2.42772C4.15625 0.984239 5.95833 0.262497 8 0.262497C10.0417 0.262497 11.8438 0.984239 13.4062 2.42772C14.9688 3.87119 15.75 5.80934 15.75 8.24217C15.75 9.86406 15.1104 11.6229 13.8313 13.5187C12.5521 15.4146 10.6083 17.4917 8 19.75Z" fill="#008080"/>
</svg>
